HIERARCHY
ROOT pelvis
{
  OFFSET 0 100 0
  CHANNELS 6 Xposition Yposition Zposition Zrotation Xrotation Yrotation
  JOINT pelvis_right_femur
  {
    OFFSET -10.78128 -3.44521 -0.5502486
    CHANNELS 3 Zrotation Xrotation Yrotation
    JOINT right_femur_tibia
    {
      OFFSET -0.8047443 -44.0398 -0.1307829
      CHANNELS 3 Zrotation Xrotation Yrotation
      JOINT right_tibia_foot
      {
        OFFSET 3.006224 -47.83518 -5
        CHANNELS 3 Zrotation Xrotation Yrotation
        End Site
        {
          OFFSET 0 -5 15
        }
      }
    }
  }
  JOINT pelvis_left_femur
  {
    OFFSET 10.78128 -3.44521 -0.5502486
    CHANNELS 3 Zrotation Xrotation Yrotation
    JOINT left_femur_tibia
    {
      OFFSET 0.8047443 -44.0398 -0.1307829
      CHANNELS 3 Zrotation Xrotation Yrotation
      JOINT left_tibia_foot
      {
        OFFSET -4.370144 -48.10324 -4.275266
        CHANNELS 3 Zrotation Xrotation Yrotation
        End Site
        {
          OFFSET 0 -5 15
        }
      }
    }
  }
  JOINT pelvis_spine1
  {
    OFFSET 0 6.468898 -3.129235
    CHANNELS 3 Zrotation Xrotation Yrotation
    JOINT spine1
    {
      OFFSET 0 23.15396 4.99043
      CHANNELS 3 Zrotation Xrotation Yrotation
      JOINT spine2
      {
        OFFSET 0 20.79997 -5.064912
        CHANNELS 3 Zrotation Xrotation Yrotation
        JOINT neck
        {
          OFFSET 0 14.38658 9.616178
          CHANNELS 3 Zrotation Xrotation Yrotation
          End Site
          {
            OFFSET 0 20 0
          }
        }
      }
      JOINT right_manubrium
      {
        OFFSET -5.722621 16.35077 3.967754
        CHANNELS 3 Zrotation Xrotation Yrotation
        JOINT right_clavicle
        {
          OFFSET -13.16364 1.694482 -4.693211
          CHANNELS 3 Zrotation Xrotation Yrotation
          JOINT right_humerus
          {
            OFFSET -28.5034 -0.3100689 -2.792744
            CHANNELS 3 Zrotation Xrotation Yrotation
            JOINT right_radius
            {
              OFFSET -25.15693 0.02248979 -1.271978
              CHANNELS 3 Zrotation Xrotation Yrotation
              End Site
              {
                OFFSET -15 0 0
              }
            }
          }
        }
      }
      JOINT left_manubrium
      {
        OFFSET 5.722621 16.35077 3.967754
        CHANNELS 3 Zrotation Xrotation Yrotation
        JOINT left_clavicle
        {
          OFFSET 13.16364 1.694482 -4.693211
          CHANNELS 3 Zrotation Xrotation Yrotation
          JOINT left_humerus
          {
            OFFSET 29.39168 -1.063119 -2.237045
            CHANNELS 3 Zrotation Xrotation Yrotation
            JOINT left_radius
            {
              OFFSET 24.59957 -0.9528479 0.9047498
              CHANNELS 3 Zrotation Xrotation Yrotation
              End Site
              {
                OFFSET 15 -0 -0
              }
            }
          }
        }
      }
    }
  }
}
MOTION
Frames: 13
Frame Time: 0.0416666666667
-21.95466 146.3546 154.4009 -0.149244 -7.332281 6.591469 5.432158 20.74287 2.636454 -0 9.830889 -0 -10.51828 -18.51766 -2.232018 5.119117 -24.72448 -3.093447 -0 10.6656 -0 0.04123989 -1.340884 17.68176 0.7250401 -2.066928 8.128448 0.1327895 12.7133 -5.250673 1.005244 20.51593 2.681171 0.8504506 -18.46299 4.467005 -2.020726 -29.78755 11.31249 85.44733 23.33661 -6.652881 -0 0 28.96165 -20.63287 13.63439 14.00062 2.172942 -19.69734 -5.045747 -97.35704 16.52918 38.83626 0 0 -5.533467 1.94034 14.24561 11.13731
-20.42965 146.3813 159.7609 -0.2493182 -7.217967 5.784799 5.380822 20.8379 2.543833 -0 9.404495 -0 -10.43618 -18.4522 -2.078307 5.097094 -24.87547 -3.112266 -0 10.37182 -0 -0.1230695 -1.50106 17.78238 0.6849158 -2.004336 8.104718 0.113403 12.58688 -5.160999 1.026334 20.5726 2.750298 0.9068714 -18.51262 4.51936 -1.993303 -29.63392 11.27198 85.26901 23.45823 -6.506533 -0 0 28.80454 -20.73408 13.51194 14.08125 2.291965 -19.61261 -4.923913 -97.3647 16.68938 38.59988 0 0 -5.523229 1.93325 14.18015 11.14706
-18.97855 146.3674 165.1813 -0.3425098 -7.126176 4.974199 5.325981 20.89737 2.420009 -0 8.997466 -0 -10.38089 -18.33185 -1.924093 5.06077 -24.94922 -3.142404 -0 10.0178 -0 -0.2609425 -1.678708 17.88797 0.6433363 -1.945157 8.064786 0.09230752 12.46336 -5.069484 1.053316 20.63901 2.811958 0.9590512 -18.55751 4.573656 -1.998665 -29.47633 11.21922 85.13233 23.5239 -6.365133 -0 0 28.61913 -20.84188 13.36322 14.15655 2.416811 -19.53742 -4.816418 -97.33106 16.80685 38.30616 0 0 -5.499417 1.990708 14.13428 11.06394
-17.60324 146.313 170.666 -0.4300268 -7.05763 4.160951 5.269061 20.92134 2.269402 -0 8.619856 -0 -10.35268 -18.16035 -1.772499 5.011229 -24.948 -3.182794 -0 9.619267 -0 -0.370939 -1.868561 17.99559 0.6013101 -1.890442 8.010446 0.07005675 12.34569 -4.978358 1.085113 20.71321 2.865547 1.006402 -18.59731 4.628536 -2.034137 -29.31805 11.1566 85.03846 23.53626 -6.232772 -0 0 28.40998 -20.95363 13.19304 14.22497 2.544303 -19.47327 -4.725008 -97.25945 16.88135 37.96466 0 0 -5.464073 2.107575 14.10755 10.89549
-16.30572 146.2194 176.2179 -0.5130957 -7.012793 3.346348 5.211316 20.91001 2.095958 -0 8.279074 -0 -10.35171 -17.94159 -1.626146 4.949687 -24.87434 -3.232294 -0 9.190099 -0 -0.4520253 -2.065969 18.10273 0.5597222 -1.841046 7.94334 0.04715681 12.2364 -4.889574 1.12075 20.79349 2.910567 1.048452 -18.63176 4.682761 -2.097233 -29.16195 11.08631 84.98817 23.49803 -6.112917 -0 0 28.18109 -21.06695 13.00566 14.28522 2.671718 -19.42153 -4.6511 -97.15324 16.91293 37.58399 0 0 -5.419303 2.279092 14.09929 10.64878
-15.08804 146.0886 181.8383 -0.5929586 -6.991962 2.53165 5.15387 20.8638 1.903261 -0 7.980363 -0 -10.37806 -17.67984 -1.487317 4.87752 -24.73092 -3.289685 -0 8.742283 -0 -0.5034133 -2.266762 18.20732 0.5193689 -1.797698 7.864982 0.02408185 12.13766 -4.804875 1.159347 20.87829 2.946549 1.084769 -18.66058 4.735177 -2.185704 -29.01067 11.01027 84.98188 23.41187 -6.008458 -0 0 27.93619 -21.17969 12.80499 14.3362 2.79667 -19.38347 -4.595871 -97.01573 16.90179 37.17217 0 0 -5.367166 2.500857 14.10876 10.33034
-13.95223 145.9235 187.5278 -0.6708783 -6.995314 1.718037 5.097768 20.78333 1.694685 -0 7.727229 -0 -10.43169 -17.37987 -1.358098 4.796293 -24.52065 -3.353652 -0 8.286119 -0 -0.5244671 -2.467107 18.30755 0.4809928 -1.76105 7.776817 0.001290689 12.0514 -4.72586 1.200099 20.9662 2.973003 1.114913 -18.68349 4.784682 -2.297514 -28.86674 10.93025 85.0197 23.28032 -5.921762 -0 0 27.67897 -21.28978 12.59466 14.37694 2.917001 -19.36023 -4.560318 -96.85024 16.84822 36.73681 0 0 -5.30962 2.768699 14.13516 9.946371
-12.90029 145.7274 193.2857 -0.7481456 -7.022884 0.9065772 5.044017 20.66955 1.473572 -0 7.521791 -0 -10.5124 -17.04719 -1.240499 4.707798 -24.24682 -3.42275 -0 7.830511 -0 -0.5146687 -2.663348 18.40184 0.4453125 -1.731713 7.680295 -0.02075802 11.97937 -4.654039 1.242249 21.0558 2.989393 1.138401 -18.70012 4.830199 -2.430772 -28.73274 10.84784 85.10143 23.10586 -5.854716 -0 0 27.41333 -21.39517 12.37827 14.40658 3.030672 -19.35284 -4.545282 -96.66015 16.75267 36.28554 0 0 -5.248507 3.078473 14.17766 9.503028
-11.93412 145.5041 199.1101 -0.8260846 -7.074527 0.09819358 4.993633 20.52383 1.243416 -0 7.365077 -0 -10.61961 -16.68829 -1.136546 4.614089 -23.91335 -3.495376 -0 7.383329 -0 -0.4736388 -2.851873 18.48874 0.4130467 -1.710277 7.576956 -0.04159334 11.92313 -4.590878 1.285059 21.14562 2.995136 1.154692 -18.71004 4.870659 -2.583615 -28.61135 10.76454 85.22643 22.89101 -5.808757 -0 0 27.14359 -21.49376 12.15948 14.42434 3.135683 -19.36218 -4.551436 -96.44906 16.61583 35.82629 0 0 -5.185556 3.425799 14.23536 9.006758
-11.05542 145.2577 204.9982 -0.9060512 -7.14982 -0.7063629 4.947676 20.3481 1.008064 -0 7.257293 -0 -10.75229 -16.31082 -1.048368 4.517508 -23.52515 -3.56973 -0 6.951769 -0 -0.4012061 -3.02899 18.56684 0.3849308 -1.697322 7.468522 -0.06072346 11.88411 -4.537819 1.327782 21.23407 2.989616 1.163182 -18.71277 4.904996 -2.754069 -28.50542 10.68183 85.39347 22.63853 -5.784879 -0 0 26.87477 -21.58335 11.94222 14.42955 3.229995 -19.38887 -4.579253 -96.22086 16.4388 35.36761 0 0 -5.122389 3.805748 14.30725 8.464755
-10.26569 144.9927 210.9459 -0.9894222 -7.247948 -1.506532 4.90728 20.14507 0.7719077 -0 7.198099 -0 -10.90872 -15.9238 -0.9782478 4.4207 -23.08847 -3.643807 -0 6.542729 -0 -0.2975272 -3.190825 18.63472 0.3617262 -1.693407 7.356992 -0.07763187 11.86358 -4.496302 1.369633 21.31938 2.972231 1.163217 -18.70776 4.932147 -2.939878 -28.41802 10.60117 85.60053 22.3517 -5.783622 -0 0 26.61272 -21.66165 11.73083 14.42168 3.311474 -19.43323 -4.628937 -95.97991 16.22331 34.91896 0 0 -5.060529 4.21248 14.39213 7.88546
-9.566083 144.7135 216.948 -1.07757 -7.367547 -2.301954 4.873662 19.91838 0.5400817 -0 7.186916 -0 -11.08625 -15.5378 -0.9286638 4.326603 -22.61134 -3.715383 -0 6.163182 -0 -0.1632547 -3.333248 18.69087 0.3442194 -1.699057 7.244737 -0.09177954 11.86265 -4.467752 1.409759 21.3995 2.942449 1.154124 -18.69445 4.951075 -3.138303 -28.35238 10.52413 85.84458 22.03454 -5.805059 -0 0 26.36433 -21.72623 11.53023 14.40034 3.377857 -19.49515 -4.700325 -95.73114 15.972 34.49102 0 0 -5.001397 4.638837 14.48855 7.279123
-8.957318 144.425 222.9979 -1.171819 -7.506529 -3.092464 4.848123 19.67284 0.3186316 -0 7.223283 -0 -11.28111 -15.1649 -0.9022816 4.238414 -22.10394 -3.782051 -0 5.820548 -0 0.0002442592 -3.451834 18.73365 0.333209 -1.714729 7.134576 -0.1026141 11.88216 -4.453558 1.447212 21.47207 2.899909 1.135263 -18.67234 4.960804 -3.345892 -28.31186 10.45235 86.12125 21.69226 -5.848766 -0 0 26.13762 -21.77459 11.34602 14.36539 3.426733 -19.57394 -4.792773 -95.48023 15.68877 34.09582 0 0 -4.946301 5.075905 14.59473 6.65841
